<svg width="167" height="50" viewBox="0 0 167 50" fill="none" xmlns="http://www.w3.org/2000/svg">
<rect y="5" width="40" height="40" rx="5" fill="#00B0FF"/>
<path d="M15.6681 38H8.46809V10H15.6681V21H19.2681L25.5081 10H33.1081L25.2681 23.8L33.0681 38H25.4681L19.2681 26.6H15.6681V38Z" fill="white"/>
<path d="M46.2845 12.9636H59.0845C61.1752 12.9636 62.7112 13.4436 63.6925 14.4036C64.6739 15.3423 65.1645 16.7823 65.1645 18.7236C65.1645 20.0036 64.8872 21.049 64.3325 21.8596C63.7779 22.649 63.0952 23.2036 62.2845 23.5236C64.0125 23.993 65.1859 25.145 65.8045 26.9796C66.0179 27.641 66.1245 28.409 66.1245 29.2836C66.1245 31.3743 65.6339 32.9103 64.6525 33.8916C63.6712 34.873 62.1352 35.3636 60.0445 35.3636H46.2845V12.9636ZM60.3645 28.3236C60.3645 27.0436 59.7245 26.4036 58.4445 26.4036H52.0445V30.8836H58.4445C59.7245 30.8836 60.3645 30.2436 60.3645 28.9636V28.3236ZM59.4045 19.3636C59.4045 18.0836 58.7645 17.4436 57.4845 17.4436H52.0445V21.9236H57.4845C58.7645 21.9236 59.4045 21.2836 59.4045 20.0036V19.3636ZM76.5233 31.0436C77.6539 31.0436 78.9339 30.8303 80.3633 30.4036V18.4036H85.9633V35.3636H81.0033L80.6833 33.7636C79.6806 34.425 78.6459 34.9156 77.5793 35.2356C76.5339 35.5343 75.6486 35.6836 74.9233 35.6836H73.4833C72.0326 35.6836 70.8699 35.2463 69.9953 34.3716C69.1206 33.497 68.6833 32.3343 68.6833 30.8836V18.4036H74.2833V29.9236C74.2833 30.2436 74.3899 30.5103 74.6033 30.7236C74.8166 30.937 75.0833 31.0436 75.4033 31.0436H76.5233ZM96.192 19.0436V35.3636H90.592V23.3636H88.192V19.0436H96.192ZM90.592 12.6436H96.192V17.1236H90.592V12.6436ZM108.042 35.3636C106.613 35.577 105.247 35.6836 103.946 35.6836C102.666 35.6836 101.589 35.2463 100.714 34.3716C99.8394 33.497 99.402 32.3343 99.402 30.8836V12.9636H105.002V30.0836C105.002 30.4036 105.109 30.6703 105.322 30.8836C105.535 31.097 105.802 31.2036 106.122 31.2036H108.042V35.3636ZM122.277 35.3636L121.957 33.7636C120.954 34.425 119.92 34.9156 118.853 35.2356C117.808 35.5343 116.922 35.6836 116.197 35.6836H114.757C113.306 35.6836 112.144 35.2463 111.269 34.3716C110.394 33.497 109.957 32.3343 109.957 30.8836V23.5236C109.957 21.9236 110.405 20.6756 111.301 19.7796C112.218 18.8623 113.477 18.4036 115.077 18.4036H121.637V12.9636H127.237V35.3636H122.277ZM117.797 31.0436C118.928 31.0436 120.208 30.8303 121.637 30.4036V22.7236H116.837C115.984 22.7236 115.557 23.1503 115.557 24.0036V29.9236C115.557 30.2436 115.664 30.5103 115.877 30.7236C116.09 30.937 116.357 31.0436 116.677 31.0436H117.797ZM136.993 22.0836C136.14 22.0836 135.713 22.5103 135.713 23.3636V25.1236H141.153V23.3636C141.153 22.5103 140.727 22.0836 139.873 22.0836H136.993ZM146.113 35.0436C141.996 35.4703 138.263 35.6836 134.913 35.6836C133.463 35.6836 132.3 35.2463 131.425 34.3716C130.551 33.497 130.113 32.3343 130.113 30.8836V23.2036C130.113 21.6036 130.561 20.3556 131.457 19.4596C132.375 18.5423 133.633 18.0836 135.233 18.0836H141.633C143.233 18.0836 144.481 18.5423 145.377 19.4596C146.295 20.3556 146.753 21.6036 146.753 23.2036V29.1236H135.713V30.4036C135.713 30.7236 135.82 30.9903 136.033 31.2036C136.247 31.417 136.513 31.5236 136.833 31.5236C138.945 31.5236 142.039 31.3636 146.113 31.0436V35.0436ZM159.381 23.0436C158.037 23.0436 156.65 23.3636 155.221 24.0036V35.3636H149.621V18.4036H154.581L154.901 20.4836C156.735 18.8836 158.655 18.0836 160.661 18.0836H162.101V23.0436H159.381Z" fill="#00B0FF"/>
</svg>
